<?xml version="1.0" encoding="UTF-8" standalone="no"?>
<!-- Created with Inkscape (http://www.inkscape.org/) -->

<svg
   version="1.1"
   id="svg1"
   width="2880"
   height="2880"
   viewBox="0 0 2880 2880"
   sodipodi:docname="Logomark (Black).svg"
   inkscape:version="1.4.3 (0d15f75, 2025-12-25)"
   xmlns:inkscape="http://www.inkscape.org/namespaces/inkscape"
   xmlns:sodipodi="http://sodipodi.sourceforge.net/DTD/sodipodi-0.dtd"
   xmlns="http://www.w3.org/2000/svg"
   xmlns:svg="http://www.w3.org/2000/svg">
  <defs
     id="defs1" />
  <sodipodi:namedview
     id="namedview1"
     pagecolor="#505050"
     bordercolor="#ffffff"
     borderopacity="1"
     inkscape:showpageshadow="0"
     inkscape:pageopacity="0"
     inkscape:pagecheckerboard="1"
     inkscape:deskcolor="#505050"
     inkscape:zoom="0.28020833"
     inkscape:cx="1438.2156"
     inkscape:cy="1440"
     inkscape:window-width="1920"
     inkscape:window-height="1009"
     inkscape:window-x="-8"
     inkscape:window-y="-8"
     inkscape:window-maximized="1"
     inkscape:current-layer="g1" />
  <g
     inkscape:groupmode="layer"
     inkscape:label="Image"
     id="g1">
    <path
       style="fill:#000000"
       d="m 400,2382.5962 c -28.34554,-2.0728 -43.66664,-12.1563 -52.56664,-34.5962 -5.76786,-14.5428 -6.09099,-22.4233 -6.06854,-148 0.0129,-72.2993 0.54622,-122.9647 1.35306,-128.5468 4.12896,-28.5659 15.56434,-44.3468 37.32533,-51.5093 L 390,2016.6667 h 1048.6667 c 902.7986,0 1049.594,0.2638 1055.3333,1.8968 22.6302,6.4391 33.9473,18.1802 40.0429,41.5431 3.3106,12.6891 4.4985,49.6296 4.4985,139.8934 0,90.2638 -1.1879,127.2043 -4.4985,139.8934 -5.9566,22.8304 -16.6098,34.191 -38.7096,41.2799 -6.0925,1.9543 -95.9982,2.1518 -1044,2.2926 C 880.8,2383.5506 407.7,2383.1593 400,2382.5962 Z m 1690,-437.3238 c -42.6028,-1.2618 -67.1931,-4.0522 -105.0061,-11.9158 -82.1584,-17.0856 -158.3903,-50.3488 -230.3272,-100.5016 -39.1925,-27.3242 -65.6141,-50.5496 -117.3334,-103.1396 -40.7229,-41.4085 -57.1769,-55.5981 -80.7605,-69.6463 -37.8303,-22.5346 -73.9319,-32.5718 -117.2395,-32.5956 -35.9663,-0.02 -65.9098,6.6886 -97.7125,21.891 -31.7489,15.1767 -53.1086,31.4122 -87.7962,66.7337 -11.8298,12.046 -28.3298,28.855 -36.6666,37.3533 -83.9308,85.5559 -187.6455,145.9826 -298.49133,173.9082 -27.45248,6.9162 -51.93694,11.5509 -78.66667,14.8911 -17.94595,2.2425 -34.78589,2.4159 -234.66667,2.4159 H 390 l -9.95679,-3.2772 c -21.76099,-7.1625 -33.19637,-22.9435 -37.32533,-51.5094 -1.78895,-12.3767 -1.78895,-243.3835 0,-255.7602 4.05073,-28.0246 14.94847,-43.4721 36.11365,-51.1909 l 9.83514,-3.5868 214.66666,-0.7389 c 118.06667,-0.4064 216.16667,-1.1954 218,-1.7532 1.83334,-0.5579 6.03334,-1.6717 9.33334,-2.4751 13.76525,-3.3514 25.34724,-11.6788 31.37187,-22.556 3.69875,-6.678 3.95865,-8.0808 3.91915,-21.1523 -0.0499,-16.5154 -2.24274,-23.2714 -12.85632,-39.6097 -8.18565,-12.6008 2.22436,-0.2955 -160.57987,-189.8161 -73.43363,-85.4841 -137.40803,-160.4841 -142.16535,-166.6666 -27.85349,-36.1979 -28.26162,-62.1817 -1.53782,-97.9076 6.34778,-8.4861 59.25805,-70.82485 110.33805,-130.00003 40.47415,-46.88852 52.05136,-56 71.15461,-56 19.4989,0 30.37758,9.07548 79.91259,66.66666 C 825.67697,935.3 853.78597,968 872.68801,990 c 18.90205,22 59.3299,69.0077 89.83967,104.4615 30.50978,35.4538 59.61302,69.3538 64.67392,75.3333 55.3955,65.4507 170.8985,198.571 177.8616,204.9902 26.1439,24.1018 52.5255,22.85 65.7749,-3.121 5.4697,-10.7215 7.8265,-22.2959 9.1627,-44.9973 0.7793,-13.24 1.3127,-168.5322 1.3397,-390.00003 0.048,-391.5241 -0.067,-384.09256 6.214,-403.32105 4.947,-15.14539 15.6886,-26.87539 29.2611,-31.95348 13.9477,-5.2185 21.5026,-5.51566 129.2056,-5.08212 112.7064,0.45369 108.5889,0.19576 123.3806,7.72901 11.7026,5.96004 21.0941,20.11555 26.0699,39.2943 2.3043,8.88171 2.4602,28.4631 3.2219,404.66667 0.5975,295.1387 1.1961,396.9594 2.3619,401.7492 3.8809,15.9458 7.5797,23.9945 14.5956,31.7603 6.7592,7.4816 14.0697,10.9834 23.0156,11.0247 21.3093,0.099 37.4166,-12.5659 74.6613,-58.7023 25.2333,-31.2574 34.0152,-41.6667 81.9744,-97.1652 22.1799,-25.6667 44.4605,-51.558 49.5123,-57.5363 5.0519,-5.9783 32.6279,-38.0783 61.28,-71.3333 28.6521,-33.2551 59.213,-68.8638 67.9131,-79.1304 8.7001,-10.2667 24.9333,-29.1667 36.0738,-42.00003 11.1406,-12.83334 36.4486,-42.24469 56.24,-65.35856 19.7915,-23.11388 40.8726,-46.62361 46.847,-52.24384 26.4485,-24.88092 47.6472,-24.46503 74.4018,1.45963 7.1534,6.93149 106.9168,122.01772 136.5301,157.4999 26.8013,32.1129 32.3587,56.1203 19.3381,83.538 -6.5881,13.8726 -15.4074,25.0848 -59.6003,75.7715 -11.5089,13.2 -26.4501,30.6 -33.2029,38.6667 -6.7527,8.0667 -35.7581,41.9066 -64.4565,75.1999 -149.2077,173.0972 -156.7729,182.2304 -165.4024,199.6828 -11.4499,23.1562 -10.4346,44.5618 2.8089,59.2208 7.5297,8.3344 14.7015,12.0668 31.0813,16.1755 4.2642,1.0697 68.1034,1.7351 220.6666,2.3003 l 214.6667,0.7952 8.6667,3.1162 c 11.36,4.0846 12.6511,4.8255 19.6501,11.277 6.8601,6.3234 12.5428,16.8047 15.7261,29.0056 3.2936,12.6237 4.4955,49.4745 4.5194,138.56 0.033,122.1644 -1.4747,141.7433 -12.3006,159.7588 -9.4349,15.7009 -24.332,22.5473 -52.9284,24.3248 -21.4476,1.3332 -337.4608,1.214 -383.3333,-0.1445 z"
       id="path1" />
  </g>
</svg>
