<svg version="1.2" xmlns="http://www.w3.org/2000/svg" viewBox="0 0 471.2085526173792 428.5458353469456" width="472" height="429">
	<style>
		tspan { white-space:pre } 
		.s0 { fill: #28220b;stroke: #ffff00;stroke-linecap: round;stroke-linejoin: round;stroke-width: 3.8 } 
		.s1 { fill: #504416;stroke: #ffff00;stroke-linecap: round;stroke-linejoin: round;stroke-width: 1.9 } 
		.s2 { opacity: .1;fill: #ffffff } 
		.t3 { font-size: 8px;fill: #ffffff;font-weight: 300;font-family: "AlanSans-Regular", "Alan Sans" } 
		.t4 { font-size: 5px;fill: #ffff0b;font-family: "Consolas" } 
	</style>
	<g id="layer1">
		<path id="rect1" class="s0" d="m1.89 1.89h467.43v424.77h-467.43z"/>
		<path id="rect2" class="s1" d="m22.09 14.34h427.02c2.48 0 4.48 2 4.48 4.48v69.02c0 2.47-2 4.47-4.48 4.47h-427.02c-2.47 0-4.47-2-4.47-4.47v-69.02c0-2.48 2-4.48 4.47-4.48zm0 105.93h427.02c2.48 0 4.48 2 4.48 4.48v69.01c0 2.48-2 4.48-4.48 4.48h-427.02c-2.47 0-4.47-2-4.47-4.48v-69.01c0-2.48 2-4.48 4.47-4.48zm0 105.93h427.02c2.48 0 4.48 2 4.48 4.47v69.02c0 2.48-2 4.48-4.48 4.48h-427.02c-2.47 0-4.47-2-4.47-4.48v-69.02c0-2.47 2-4.47 4.47-4.47zm0 105.93h427.02c2.48 0 4.48 2 4.48 4.47v69.02c0 2.48-2 4.48-4.48 4.48h-427.02c-2.47 0-4.47-2-4.47-4.48v-69.02c0-2.47 2-4.47 4.47-4.47z"/>
		<path id="path1" class="s2" d="m46.87 380.95c-5.14-0.38-7.92-2.21-9.54-6.28-1.04-2.64-1.1-4.07-1.1-26.86 0-13.12 0.1-22.32 0.25-23.33 0.75-5.18 2.82-8.05 6.77-9.35l1.81-0.59h190.31c163.84 0 190.48 0.05 191.52 0.34 4.11 1.17 6.16 3.3 7.27 7.54 0.6 2.3 0.81 9.01 0.81 25.39 0 16.38-0.21 23.08-0.81 25.39-1.09 4.14-3.02 6.2-7.03 7.49-1.11 0.35-17.42 0.39-189.46 0.41-103.54 0.02-189.4-0.05-190.8-0.15zm306.7-79.37c-7.73-0.23-12.19-0.73-19.05-2.16-14.91-3.1-28.75-9.14-41.8-18.24-7.12-4.96-11.91-9.17-21.3-18.72-7.39-7.51-10.37-10.09-14.65-12.64-6.87-4.09-13.42-5.91-21.28-5.91-6.53-0.01-11.96 1.21-17.73 3.97-5.76 2.75-9.64 5.7-15.94 12.11-2.14 2.19-5.14 5.24-6.65 6.78-15.23 15.53-34.05 26.49-54.17 31.56-4.98 1.25-9.42 2.1-14.28 2.7-3.25 0.41-6.31 0.44-42.58 0.44h-39.08l-1.81-0.59c-3.95-1.3-6.02-4.17-6.77-9.35-0.33-2.25-0.33-44.17 0-46.42 0.73-5.08 2.71-7.89 6.55-9.29l1.79-0.65 38.95-0.13c21.43-0.08 39.23-0.22 39.57-0.32 0.33-0.1 1.09-0.3 1.69-0.45 2.5-0.61 4.6-2.12 5.69-4.09 0.67-1.22 0.72-1.47 0.71-3.84-0.01-3-0.4-4.23-2.33-7.19-1.48-2.29 0.41-0.05-29.14-34.45-13.33-15.51-24.94-29.12-25.8-30.24-5.05-6.57-5.13-11.29-0.28-17.77 1.15-1.54 10.75-12.86 20.02-23.59 7.35-8.51 9.45-10.17 12.92-10.17 3.54 0 5.51 1.65 14.5 12.1 2.8 3.26 7.91 9.2 11.34 13.19 3.43 3.99 10.76 12.52 16.3 18.96 5.54 6.43 10.82 12.58 11.74 13.67 10.05 11.88 31.01 36.03 32.27 37.2 4.75 4.37 9.54 4.15 11.94-0.57 0.99-1.94 1.42-4.04 1.66-8.16 0.15-2.41 0.24-30.59 0.25-70.78 0.01-71.05-0.01-69.7 1.13-73.19 0.89-2.75 2.84-4.88 5.31-5.8 2.53-0.95 3.9-1 23.44-0.92 20.46 0.08 19.71 0.03 22.39 1.4 2.13 1.08 3.83 3.65 4.74 7.13 0.41 1.61 0.44 5.16 0.58 73.44 0.11 53.56 0.22 72.04 0.43 72.91 0.7 2.89 1.37 4.35 2.65 5.76 1.22 1.36 2.55 1.99 4.17 2 3.87 0.02 6.79-2.28 13.55-10.65 4.58-5.68 6.18-7.56 14.88-17.64 4.03-4.65 8.07-9.35 8.99-10.44 0.91-1.08 5.92-6.91 11.12-12.94 5.2-6.04 10.74-12.5 12.32-14.36 1.58-1.87 4.53-5.3 6.55-7.63 2.02-2.32 6.61-7.66 10.2-11.86 3.6-4.19 7.42-8.46 8.51-9.48 4.8-4.51 8.64-4.44 13.5 0.27 1.3 1.25 19.4 22.14 24.78 28.58 4.86 5.83 5.87 10.18 3.5 15.16-1.19 2.52-2.79 4.55-10.81 13.75-2.09 2.4-4.8 5.55-6.03 7.02-1.22 1.46-6.49 7.6-11.69 13.65-27.08 31.41-28.46 33.07-30.02 36.23-2.08 4.21-1.89 8.09 0.51 10.75 1.37 1.51 2.67 2.19 5.64 2.94 0.77 0.19 12.36 0.31 40.05 0.41l38.95 0.15 1.58 0.56c2.06 0.74 2.29 0.88 3.56 2.05 1.25 1.15 2.28 3.05 2.86 5.26 0.59 2.29 0.81 8.98 0.82 25.15 0 22.17-0.27 25.72-2.24 28.99-1.71 2.85-4.41 4.09-9.6 4.42-3.89 0.24-61.24 0.22-69.57-0.03z"/>
		<g id="g1">
			<text id="CORE:" style="transform: matrix(3.775,0,0,3.775,32.155,62.95)">
				<tspan x="0" y="0" class="t3">CORE:
</tspan>
			</text>
			<text id="AUDIO:" style="transform: matrix(3.775,0,0,3.775,32.155,170.736)">
				<tspan x="0" y="0" class="t3">AUDIO:
</tspan>
			</text>
			<text id="CONTROLS:" style="transform: matrix(3.775,0,0,3.775,32.155,276.271)">
				<tspan x="0" y="0" class="t3">CONTROLS:
</tspan>
			</text>
			<g id="text7">
				<text id="CLIPBOARD" style="transform: matrix(3.775,0,0,3.775,32.155,368.23)">
					<tspan x="0" y="0" class="t3">CLIPBOARD
</tspan>
				</text>
				<text id="DRAG &amp; DROP:" style="transform: matrix(3.775,0,0,3.775,34.155,397.535)">
					<tspan x="0" y="0" class="t3">DRAG &amp; DROP:
</tspan>
				</text>
			</g>
		</g>
		<g id="g6">
			<g id="g3">
				<text id="winmm" style="transform: matrix(3.775,0,0,3.775,441.478,166.326)">
					<tspan x="-19.5" y="0" class="t4">winmm
</tspan>
				</text>
			</g>
			<g id="g2">
				<g id="text9">
					<text id="gdi32" style="transform: matrix(3.775,0,0,3.775,441.478,46.261)">
						<tspan x="-14.9" y="0" class="t4">gdi32
</tspan>
					</text>
					<text id="user32" style="transform: matrix(3.775,0,0,3.775,441.478,76.222)">
						<tspan x="-18.3" y="0" class="t4">user32
</tspan>
					</text>
				</g>
				<g id="text14">
					<text id="gdiplus" style="transform: matrix(3.775,0,0,3.775,338.017,46.261)">
						<tspan x="-19.2" y="0" class="t4">gdiplus
</tspan>
					</text>
					<text id="ole32" style="transform: matrix(3.775,0,0,3.775,339.017,75.222)">
						<tspan x="-14.7" y="0" class="t4">ole32
</tspan>
					</text>
				</g>
			</g>
			<g id="g4">
				<g id="text16">
					<text id="uuid" style="transform: matrix(3.775,0,0,3.775,441.478,258.113)">
						<tspan x="-11.6" y="0" class="t4">uuid
</tspan>
					</text>
					<text id="shell32" style="transform: matrix(3.775,0,0,3.775,441.478,288.074)">
						<tspan x="-19.1" y="0" class="t4">shell32
</tspan>
					</text>
				</g>
				<g id="text18">
					<text id="comctl32" style="transform: matrix(3.775,0,0,3.775,347.017,257.113)">
						<tspan x="-24.5" y="0" class="t4">comctl32
</tspan>
					</text>
					<text id="comdlg32" style="transform: matrix(3.775,0,0,3.775,348.111,288)">
						<tspan x="-26.3" y="0" class="t4">comdlg32
</tspan>
					</text>
				</g>
			</g>
			<g id="g5">
				<g id="text20">
					<text id="ole32" style="transform: matrix(3.775,0,0,3.775,441.478,365.198)">
						<tspan x="-14.7" y="0" class="t4">ole32
</tspan>
					</text>
					<text id="uuid" style="transform: matrix(3.775,0,0,3.775,441.478,395.159)">
						<tspan x="-11.6" y="0" class="t4">uuid
</tspan>
					</text>
				</g>
			</g>
		</g>
	</g>
</svg>