<?xml version="1.0" encoding="UTF-8" standalone="no"?>
<!-- Created with Inkscape (http://www.inkscape.org/) -->

<svg
   width="471.82434"
   height="429.10587"
   viewBox="0 0 124.83686 113.53426"
   version="1.1"
   id="svg1"
   xml:space="preserve"
   inkscape:version="1.4 (86a8ad7, 2024-10-11)"
   sodipodi:docname="WS_Flags.svg"
   xmlns:inkscape="http://www.inkscape.org/namespaces/inkscape"
   xmlns:sodipodi="http://sodipodi.sourceforge.net/DTD/sodipodi-0.dtd"
   xmlns="http://www.w3.org/2000/svg"
   xmlns:svg="http://www.w3.org/2000/svg"><sodipodi:namedview
     id="namedview1"
     pagecolor="#ffffff"
     bordercolor="#000000"
     borderopacity="0.25"
     inkscape:showpageshadow="2"
     inkscape:pageopacity="0.0"
     inkscape:pagecheckerboard="0"
     inkscape:deskcolor="#d1d1d1"
     inkscape:document-units="mm"
     inkscape:zoom="1.5233586"
     inkscape:cx="209.73394"
     inkscape:cy="231.3966"
     inkscape:window-width="1920"
     inkscape:window-height="1057"
     inkscape:window-x="-8"
     inkscape:window-y="892"
     inkscape:window-maximized="1"
     inkscape:current-layer="layer1" /><defs
     id="defs1"><inkscape:path-effect
       effect="tiling"
       id="path-effect5"
       is_visible="true"
       lpeversion="1.3.1"
       unit="px"
       seed="1;1"
       lpesatellites=""
       num_rows="4"
       num_cols="1"
       gapx="0"
       gapy="28"
       offset="0"
       offset_type="false"
       scale="0"
       rotate="0"
       mirrorrowsx="false"
       mirrorrowsy="false"
       mirrorcolsx="false"
       mirrorcolsy="false"
       mirrortrans="false"
       shrink_interp="false"
       split_items="false"
       link_styles="false"
       interpolate_scalex="false"
       interpolate_scaley="true"
       interpolate_rotatex="false"
       interpolate_rotatey="true"
       random_scale="false"
       random_rotate="false"
       random_gap_y="false"
       random_gap_x="false"
       transformorigin="" /></defs><g
     inkscape:label="Capa 1"
     inkscape:groupmode="layer"
     id="layer1"
     transform="translate(-43.615776,-62.721054)"><rect
       style="fill:#28220b;fill-opacity:1;stroke:#ffff00;stroke-width:1;stroke-linecap:round;stroke-linejoin:round;stroke-dasharray:none;stroke-opacity:1"
       id="rect1"
       width="123.83685"
       height="112.53426"
       x="44.115776"
       y="63.221054"
       ry="5.0368423"
       inkscape:export-filename="WinsimpleLinkFlags.png"
       inkscape:export-xdpi="223.72104"
       inkscape:export-ydpi="223.72104"
       inkscape:label="Background" /><path
       id="rect2"
       d="M 49.469225,66.521057 H 162.59918 c 0.6565,0 1.18503,0.528522 1.18503,1.185026 v 18.285266 c 0,0.656504 -0.52853,1.185025 -1.18503,1.185025 H 49.469225 c -0.656505,0 -1.185026,-0.528521 -1.185026,-1.185025 V 67.706083 c 0,-0.656504 0.528521,-1.185026 1.185026,-1.185026 z m 0,28.063651 H 162.59918 c 0.6565,0 1.18503,0.528521 1.18503,1.185026 V 114.055 c 0,0.6565 -0.52853,1.18503 -1.18503,1.18503 H 49.469225 c -0.656505,0 -1.185026,-0.52853 -1.185026,-1.18503 V 95.769734 c 0,-0.656505 0.528521,-1.185026 1.185026,-1.185026 z m 0,28.063652 H 162.59918 c 0.6565,0 1.18503,0.52852 1.18503,1.18502 v 18.28527 c 0,0.6565 -0.52853,1.18503 -1.18503,1.18503 H 49.469225 c -0.656505,0 -1.185026,-0.52853 -1.185026,-1.18503 v -18.28527 c 0,-0.6565 0.528521,-1.18502 1.185026,-1.18502 z m 0,28.06365 H 162.59918 c 0.6565,0 1.18503,0.52852 1.18503,1.18503 v 18.28526 c 0,0.65651 -0.52853,1.18503 -1.18503,1.18503 H 49.469225 c -0.656505,0 -1.185026,-0.52852 -1.185026,-1.18503 v -18.28526 c 0,-0.65651 0.528521,-1.18503 1.185026,-1.18503 z"
       style="fill:#504416;fill-opacity:1;stroke:#ffff00;stroke-width:0.5;stroke-linecap:round;stroke-linejoin:round;stroke-dasharray:none;stroke-opacity:1" /><path
       style="fill:#ffffff;fill-opacity:0.1;stroke-width:0.0480787"
       d="m 56.034051,163.64447 c -1.362821,-0.0997 -2.09944,-0.58445 -2.52735,-1.66333 -0.277298,-0.6992 -0.292839,-1.0781 -0.291755,-7.11566 5.36e-4,-3.47607 0.02628,-5.91199 0.06502,-6.18037 0.19851,-1.37341 0.7483,-2.13214 1.794544,-2.4765 l 0.478717,-0.15757 h 50.418603 c 43.40546,0 50.46319,0.0131 50.73913,0.0911 1.08802,0.30959 1.63215,0.87409 1.92521,1.99735 0.15915,0.61007 0.21629,2.38611 0.21629,6.72589 0,4.33978 -0.0572,6.11584 -0.21629,6.72591 -0.28639,1.09766 -0.79859,1.64386 -1.86111,1.98468 -0.29294,0.094 -4.61547,0.10346 -50.19423,0.11029 -27.430553,0.004 -50.176615,-0.0147 -50.546814,-0.0418 z m 81.253119,-21.02598 c -2.04829,-0.0607 -3.23056,-0.19484 -5.04856,-0.5729 -3.95008,-0.82144 -7.61522,-2.42071 -11.07387,-4.83199 -1.88433,-1.31371 -3.15463,-2.43035 -5.64124,-4.9588 -1.9579,-1.99089 -2.74899,-2.67309 -3.88286,-3.34852 -1.81884,-1.08344 -3.55456,-1.56601 -5.63673,-1.56716 -1.72921,-8.6e-4 -3.16886,0.32159 -4.6979,1.0525 -1.526452,0.72968 -2.553394,1.51026 -4.221137,3.20847 -0.568763,0.57916 -1.362052,1.38732 -1.762882,1.7959 -4.035288,4.1134 -9.021768,7.01866 -14.351088,8.36128 -1.319895,0.33253 -2.497064,0.55535 -3.782202,0.71595 -0.862813,0.10784 -1.672457,0.11611 -11.282491,0.11611 H 55.553258 l -0.478713,-0.15758 c -1.046248,-0.34437 -1.596041,-1.1031 -1.794548,-2.47652 -0.08605,-0.59504 -0.08605,-11.70156 0,-12.29661 0.194733,-1.34739 0.718697,-2.0901 1.736295,-2.46121 l 0.472852,-0.17246 10.320912,-0.0356 c 5.676501,-0.0197 10.393032,-0.0575 10.481176,-0.0843 0.08809,-0.027 0.290079,-0.0804 0.448736,-0.119 0.661809,-0.16112 1.218658,-0.56151 1.508314,-1.08447 0.177845,-0.32106 0.19033,-0.38851 0.188424,-1.01697 -0.0029,-0.79405 -0.107831,-1.11886 -0.618118,-1.90439 -0.393559,-0.60583 0.106944,-0.0144 -7.720479,-9.12612 -3.530609,-4.10997 -6.606418,-7.71588 -6.835139,-8.01313 -1.339165,-1.74034 -1.358786,-2.98962 -0.07402,-4.70727 0.305192,-0.407999 2.849048,-3.405168 5.304912,-6.250241 1.945947,-2.254353 2.502563,-2.692422 3.42103,-2.692422 0.937477,0 1.460513,0.436341 3.842094,3.205255 0.742991,0.863816 2.094434,2.435999 3.003221,3.49372 0.908788,1.05774 2.852501,3.317808 4.319372,5.022388 1.466882,1.70457 2.866126,3.33445 3.109445,3.62193 2.663358,3.14679 8.216596,9.54705 8.551367,9.85568 1.25697,1.15878 2.525362,1.09859 3.162375,-0.15005 0.262973,-0.51548 0.376291,-1.07197 0.440532,-2.16342 0.03746,-0.63657 0.06312,-8.10281 0.06443,-18.750722 0.0029,-18.823994 -0.0029,-18.466697 0.298752,-19.391174 0.237839,-0.728176 0.754283,-1.292149 1.40684,-1.536296 0.67059,-0.250882 1.03383,-0.265174 6.21204,-0.244344 5.4188,0.02169 5.22082,0.0089 5.93201,0.371605 0.56263,0.286564 1.01417,0.967126 1.25339,1.88922 0.11073,0.427026 0.11829,1.368465 0.15492,19.455869 0.0286,14.189912 0.0575,19.085332 0.11361,19.315622 0.18658,0.76664 0.36443,1.15361 0.70174,1.52698 0.32497,0.35971 0.67645,0.52807 1.10655,0.53006 1.02454,0.004 1.79896,-0.60415 3.58963,-2.82233 1.21319,-1.50283 1.63541,-2.00328 3.94122,-4.67158 1.06639,-1.23404 2.13761,-2.47885 2.38049,-2.76628 0.24291,-0.28745 1.56871,-1.83077 2.94628,-3.42962 1.37755,-1.59887 2.84688,-3.310889 3.26518,-3.804496 0.4183,-0.493603 1.19876,-1.402293 1.73439,-2.019303 0.53563,-0.617014 1.75239,-2.031076 2.70394,-3.142363 0.95154,-1.111285 1.9651,-2.241612 2.25234,-2.511823 1.27162,-1.196238 2.29082,-1.176239 3.57715,0.07025 0.34392,0.333251 5.14044,5.866464 6.56421,7.572401 1.28855,1.543954 1.55576,2.698194 0.92974,4.016404 -0.31676,0.66698 -0.74078,1.20605 -2.8655,3.64301 -0.55334,0.63462 -1.27169,1.47121 -1.59637,1.85903 -0.32467,0.38784 -1.71919,2.01482 -3.09898,3.61552 -7.17373,8.32229 -7.53745,8.76141 -7.95233,9.60052 -0.5505,1.11331 -0.50168,2.14246 0.13509,2.84724 0.36202,0.40071 0.70682,0.58017 1.49434,0.77771 0.20502,0.0513 3.27433,0.0834 10.60938,0.11059 l 10.32091,0.0381 0.4167,0.14982 c 0.54616,0.19638 0.60825,0.232 0.94474,0.54219 0.32982,0.30401 0.60304,0.80795 0.75609,1.39455 0.15837,0.60694 0.21616,2.37868 0.21727,6.6618 0.002,5.87349 -0.071,6.81482 -0.59139,7.68099 -0.45362,0.75488 -1.16985,1.08405 -2.54474,1.16951 -1.03116,0.0641 -16.22469,0.0583 -18.43019,-0.007 z"
       id="path1"
       inkscape:label="WS logo" /><g
       id="g1"
       inkscape:label="Titles"><text
         xml:space="preserve"
         style="font-style:normal;font-variant:normal;font-weight:normal;font-stretch:normal;font-size:11.2889px;font-family:'Microsoft Himalaya';-inkscape-font-specification:'Microsoft Himalaya';text-align:start;letter-spacing:0px;writing-mode:lr-tb;direction:ltr;text-anchor:start;fill:#ffffff;fill-opacity:1;stroke:#000000;stroke-width:0.1;stroke-linecap:round;stroke-linejoin:round;stroke-dasharray:none;stroke-opacity:1"
         x="52.134659"
         y="79.3983"
         id="text2"
         inkscape:label="CORE"><tspan
           sodipodi:role="line"
           id="tspan2"
           style="font-style:normal;font-variant:normal;font-weight:normal;font-stretch:normal;font-size:11.2889px;font-family:'Microsoft Himalaya';-inkscape-font-specification:'Microsoft Himalaya';text-align:start;text-anchor:start;fill:#ffffff;fill-opacity:1;stroke:#000000;stroke-width:0.1;stroke-dasharray:none;stroke-opacity:1"
           x="52.134659"
           y="79.3983">CORE:</tspan></text><text
         xml:space="preserve"
         style="font-style:normal;font-variant:normal;font-weight:normal;font-stretch:normal;font-size:11.2889px;font-family:'Microsoft Himalaya';-inkscape-font-specification:'Microsoft Himalaya';text-align:start;letter-spacing:0px;writing-mode:lr-tb;direction:ltr;text-anchor:start;fill:#ffffff;fill-opacity:1;stroke:#000000;stroke-width:0.1;stroke-linecap:round;stroke-linejoin:round;stroke-dasharray:none;stroke-opacity:1"
         x="52.134659"
         y="107.95386"
         id="text5"
         inkscape:label="AUDIO"><tspan
           sodipodi:role="line"
           id="tspan5"
           style="font-style:normal;font-variant:normal;font-weight:normal;font-stretch:normal;font-size:11.2889px;font-family:'Microsoft Himalaya';-inkscape-font-specification:'Microsoft Himalaya';text-align:start;text-anchor:start;fill:#ffffff;fill-opacity:1;stroke:#000000;stroke-width:0.1;stroke-dasharray:none;stroke-opacity:1"
           x="52.134659"
           y="107.95386">AUDIO:</tspan></text><text
         xml:space="preserve"
         style="font-style:normal;font-variant:normal;font-weight:normal;font-stretch:normal;font-size:11.2889px;font-family:'Microsoft Himalaya';-inkscape-font-specification:'Microsoft Himalaya';text-align:start;letter-spacing:0px;writing-mode:lr-tb;direction:ltr;text-anchor:start;fill:#ffffff;fill-opacity:1;stroke:#000000;stroke-width:0.1;stroke-linecap:round;stroke-linejoin:round;stroke-dasharray:none;stroke-opacity:1"
         x="52.134659"
         y="135.91316"
         id="text6"
         inkscape:label="CONTROLS"><tspan
           sodipodi:role="line"
           id="tspan6"
           style="font-style:normal;font-variant:normal;font-weight:normal;font-stretch:normal;font-size:11.2889px;font-family:'Microsoft Himalaya';-inkscape-font-specification:'Microsoft Himalaya';text-align:start;text-anchor:start;fill:#ffffff;fill-opacity:1;stroke:#000000;stroke-width:0.1;stroke-dasharray:none;stroke-opacity:1"
           x="52.134659"
           y="135.91316">CONTROLS:</tspan></text><text
         xml:space="preserve"
         style="font-style:normal;font-variant:normal;font-weight:normal;font-stretch:normal;font-size:11.2889px;line-height:0.5;font-family:'Microsoft Himalaya';-inkscape-font-specification:'Microsoft Himalaya';text-align:start;letter-spacing:0px;writing-mode:lr-tb;direction:ltr;text-anchor:start;fill:#ffffff;fill-opacity:1;stroke:#000000;stroke-width:0.1;stroke-linecap:round;stroke-linejoin:round;stroke-dasharray:none;stroke-opacity:1"
         x="52.134659"
         y="161.33549"
         id="text7"
         inkscape:label="CLIPBOARD"><tspan
           sodipodi:role="line"
           id="tspan7"
           style="font-style:normal;font-variant:normal;font-weight:normal;font-stretch:normal;font-size:11.2889px;line-height:0.5;font-family:'Microsoft Himalaya';-inkscape-font-specification:'Microsoft Himalaya';text-align:start;text-anchor:start;fill:#ffffff;fill-opacity:1;stroke:#000000;stroke-width:0.1;stroke-dasharray:none;stroke-opacity:1"
           x="52.134659"
           y="161.33549">CLIPBOARD</tspan><tspan
           sodipodi:role="line"
           style="font-style:normal;font-variant:normal;font-weight:normal;font-stretch:normal;font-size:11.2889px;line-height:0.5;font-family:'Microsoft Himalaya';-inkscape-font-specification:'Microsoft Himalaya';text-align:start;text-anchor:start;fill:#ffffff;fill-opacity:1;stroke:#000000;stroke-width:0.1;stroke-dasharray:none;stroke-opacity:1"
           x="52.134659"
           y="166.97995"
           id="tspan8">DRAG &amp; DROP:</tspan></text></g><g
       id="g6"
       inkscape:label="Flags"><g
         id="g3"
         inkscape:label="Audio flags"><text
           xml:space="preserve"
           style="font-style:normal;font-variant:normal;font-weight:normal;font-stretch:normal;font-size:6.35px;font-family:Consolas;-inkscape-font-specification:Consolas;text-align:end;letter-spacing:0px;writing-mode:lr-tb;direction:ltr;text-anchor:end;fill:#ffff0b;fill-opacity:1;stroke:#000000;stroke-width:0.1;stroke-linecap:round;stroke-linejoin:round;stroke-dasharray:none;stroke-opacity:1"
           x="160.57622"
           y="106.78566"
           id="text12"><tspan
             sodipodi:role="line"
             style="font-style:normal;font-variant:normal;font-weight:normal;font-stretch:normal;font-size:6.35px;font-family:Consolas;-inkscape-font-specification:Consolas;text-align:end;text-anchor:end;fill:#ffff0b;fill-opacity:1;stroke:#000000;stroke-width:0.1;stroke-dasharray:none;stroke-opacity:1"
             x="160.57622"
             y="106.78566"
             id="tspan12">winmm</tspan></text></g><g
         id="g2"
         inkscape:label="Core flags"><text
           xml:space="preserve"
           style="font-style:normal;font-variant:normal;font-weight:normal;font-stretch:normal;font-size:6.35px;font-family:Consolas;-inkscape-font-specification:Consolas;text-align:end;letter-spacing:0px;writing-mode:lr-tb;direction:ltr;text-anchor:end;fill:#ffff0b;fill-opacity:1;stroke:#000000;stroke-width:0.1;stroke-linecap:round;stroke-linejoin:round;stroke-dasharray:none;stroke-opacity:1"
           x="160.57622"
           y="74.97702"
           id="text9"><tspan
             sodipodi:role="line"
             id="tspan9"
             style="font-style:normal;font-variant:normal;font-weight:normal;font-stretch:normal;font-size:6.35px;font-family:Consolas;-inkscape-font-specification:Consolas;text-align:end;text-anchor:end;fill:#ffff0b;fill-opacity:1;stroke:#000000;stroke-width:0.1;stroke-dasharray:none;stroke-opacity:1"
             x="160.57622"
             y="74.97702">gdi32</tspan><tspan
             sodipodi:role="line"
             style="font-style:normal;font-variant:normal;font-weight:normal;font-stretch:normal;font-size:6.35px;font-family:Consolas;-inkscape-font-specification:Consolas;text-align:end;text-anchor:end;fill:#ffff0b;fill-opacity:1;stroke:#000000;stroke-width:0.1;stroke-dasharray:none;stroke-opacity:1"
             x="160.57622"
             y="82.91452"
             id="tspan10">user32</tspan></text><text
           xml:space="preserve"
           style="font-style:normal;font-variant:normal;font-weight:normal;font-stretch:normal;font-size:6.35px;font-family:Consolas;-inkscape-font-specification:Consolas;text-align:end;letter-spacing:0px;writing-mode:lr-tb;direction:ltr;text-anchor:end;fill:#ffff0b;fill-opacity:1;stroke:#000000;stroke-width:0.1;stroke-linecap:round;stroke-linejoin:round;stroke-dasharray:none;stroke-opacity:1"
           x="129.4572"
           y="74.97702"
           id="text14"><tspan
             sodipodi:role="line"
             id="tspan13"
             style="font-style:normal;font-variant:normal;font-weight:normal;font-stretch:normal;font-size:6.35px;font-family:Consolas;-inkscape-font-specification:Consolas;text-align:end;text-anchor:end;fill:#ffff0b;fill-opacity:1;stroke:#000000;stroke-width:0.1;stroke-dasharray:none;stroke-opacity:1"
             x="129.4572"
             y="74.97702">gdiplus</tspan><tspan
             sodipodi:role="line"
             style="font-style:normal;font-variant:normal;font-weight:normal;font-stretch:normal;font-size:6.35px;font-family:Consolas;-inkscape-font-specification:Consolas;text-align:end;text-anchor:end;fill:#ffff0b;fill-opacity:1;stroke:#000000;stroke-width:0.1;stroke-dasharray:none;stroke-opacity:1"
             x="129.4572"
             y="82.91452"
             id="tspan14">ole32</tspan></text></g><g
         id="g4"
         inkscape:label="Controls flags"><text
           xml:space="preserve"
           style="font-style:normal;font-variant:normal;font-weight:normal;font-stretch:normal;font-size:6.35px;font-family:Consolas;-inkscape-font-specification:Consolas;text-align:end;letter-spacing:0px;writing-mode:lr-tb;direction:ltr;text-anchor:end;fill:#ffff0b;fill-opacity:1;stroke:#000000;stroke-width:0.1;stroke-linecap:round;stroke-linejoin:round;stroke-dasharray:none;stroke-opacity:1"
           x="160.57622"
           y="131.10269"
           id="text16"><tspan
             sodipodi:role="line"
             id="tspan15"
             style="font-style:normal;font-variant:normal;font-weight:normal;font-stretch:normal;font-size:6.35px;font-family:Consolas;-inkscape-font-specification:Consolas;text-align:end;text-anchor:end;fill:#ffff0b;fill-opacity:1;stroke:#000000;stroke-width:0.1;stroke-dasharray:none;stroke-opacity:1"
             x="160.57622"
             y="131.10269">uuid</tspan><tspan
             sodipodi:role="line"
             style="font-style:normal;font-variant:normal;font-weight:normal;font-stretch:normal;font-size:6.35px;font-family:Consolas;-inkscape-font-specification:Consolas;text-align:end;text-anchor:end;fill:#ffff0b;fill-opacity:1;stroke:#000000;stroke-width:0.1;stroke-dasharray:none;stroke-opacity:1"
             x="160.57622"
             y="139.04019"
             id="tspan16">shell32</tspan></text><text
           xml:space="preserve"
           style="font-style:normal;font-variant:normal;font-weight:normal;font-stretch:normal;font-size:6.35px;font-family:Consolas;-inkscape-font-specification:Consolas;text-align:end;letter-spacing:0px;writing-mode:lr-tb;direction:ltr;text-anchor:end;fill:#ffff0b;fill-opacity:1;stroke:#000000;stroke-width:0.1;stroke-linecap:round;stroke-linejoin:round;stroke-dasharray:none;stroke-opacity:1"
           x="129.4572"
           y="131.10269"
           id="text18"><tspan
             sodipodi:role="line"
             style="font-style:normal;font-variant:normal;font-weight:normal;font-stretch:normal;font-size:6.35px;font-family:Consolas;-inkscape-font-specification:Consolas;text-align:end;text-anchor:end;fill:#ffff0b;fill-opacity:1;stroke:#000000;stroke-width:0.1;stroke-dasharray:none;stroke-opacity:1"
             x="129.4572"
             y="131.10269"
             id="tspan18">comctl32</tspan><tspan
             sodipodi:role="line"
             style="font-style:normal;font-variant:normal;font-weight:normal;font-stretch:normal;font-size:6.35px;font-family:Consolas;-inkscape-font-specification:Consolas;text-align:end;text-anchor:end;fill:#ffff0b;fill-opacity:1;stroke:#000000;stroke-width:0.1;stroke-dasharray:none;stroke-opacity:1"
             x="129.4572"
             y="139.04019"
             id="tspan21">comdlg32</tspan></text></g><g
         id="g5"
         inkscape:label="Clipboard flags"><text
           xml:space="preserve"
           style="font-style:normal;font-variant:normal;font-weight:normal;font-stretch:normal;font-size:6.35px;font-family:Consolas;-inkscape-font-specification:Consolas;text-align:end;letter-spacing:0px;writing-mode:lr-tb;direction:ltr;text-anchor:end;fill:#ffff0b;fill-opacity:1;stroke:#000000;stroke-width:0.1;stroke-linecap:round;stroke-linejoin:round;stroke-dasharray:none;stroke-opacity:1"
           x="160.57622"
           y="159.47256"
           id="text20"><tspan
             sodipodi:role="line"
             id="tspan19"
             style="font-style:normal;font-variant:normal;font-weight:normal;font-stretch:normal;font-size:6.35px;font-family:Consolas;-inkscape-font-specification:Consolas;text-align:end;text-anchor:end;fill:#ffff0b;fill-opacity:1;stroke:#000000;stroke-width:0.1;stroke-dasharray:none;stroke-opacity:1"
             x="160.57622"
             y="159.47256">ole32</tspan><tspan
             sodipodi:role="line"
             style="font-style:normal;font-variant:normal;font-weight:normal;font-stretch:normal;font-size:6.35px;font-family:Consolas;-inkscape-font-specification:Consolas;text-align:end;text-anchor:end;fill:#ffff0b;fill-opacity:1;stroke:#000000;stroke-width:0.1;stroke-dasharray:none;stroke-opacity:1"
             x="160.57622"
             y="167.41006"
             id="tspan20">uuid</tspan></text></g></g></g></svg>
